<svg width="106" height="26" viewBox="0 0 106 26" fill="none" xmlns="http://www.w3.org/2000/svg">
<path d="M33.78 18C33.5533 18 33.3667 17.9267 33.22 17.78C33.0733 17.6333 33 17.4467 33 17.22V3.16C33 2.93333 33.0733 2.74667 33.22 2.6C33.3667 2.45333 33.5533 2.38 33.78 2.38H37.52C38.4933 2.38 39.36 2.58667 40.12 3C40.88 3.4 41.4733 3.96667 41.9 4.7C42.34 5.42 42.56 6.25333 42.56 7.2C42.56 8.24 42.28 9.14667 41.72 9.92C41.16 10.68 40.4133 11.22 39.48 11.54L42.76 16.8C42.96 17.12 42.9933 17.4 42.86 17.64C42.74 17.88 42.5 18 42.14 18C41.9667 18 41.8267 17.9667 41.72 17.9C41.6267 17.8333 41.54 17.7333 41.46 17.6L37.86 11.86C37.7533 11.8733 37.64 11.88 37.52 11.88H34.56V17.22C34.56 17.4467 34.4867 17.6333 34.34 17.78C34.1933 17.9267 34.0067 18 33.78 18ZM34.56 10.38H37.52C38.2 10.38 38.8 10.2467 39.32 9.98C39.8533 9.7 40.2733 9.32 40.58 8.84C40.8867 8.36 41.04 7.81333 41.04 7.2C41.04 6.54667 40.8867 5.97333 40.58 5.48C40.2733 4.97333 39.8533 4.58 39.32 4.3C38.8 4.02 38.2 3.88 37.52 3.88H34.56V10.38ZM49.9833 18.1C48.9566 18.1 48.0366 17.86 47.2233 17.38C46.4099 16.8867 45.7633 16.22 45.2833 15.38C44.8166 14.54 44.5833 13.5933 44.5833 12.54C44.5833 11.4733 44.8233 10.52 45.3033 9.68C45.7966 8.84 46.4633 8.18 47.3033 7.7C48.1433 7.20667 49.0899 6.96 50.1433 6.96C51.1966 6.96 52.1366 7.20667 52.9633 7.7C53.8033 8.18 54.4633 8.84 54.9433 9.68C55.4366 10.52 55.6899 11.4733 55.7033 12.54V17.24C55.7033 17.4667 55.6299 17.6533 55.4833 17.8C55.3366 17.9333 55.1499 18 54.9233 18C54.6966 18 54.5099 17.9333 54.3633 17.8C54.2166 17.6533 54.1433 17.4667 54.1433 17.24V16.02C53.6899 16.66 53.1033 17.1667 52.3833 17.54C51.6633 17.9133 50.8633 18.1 49.9833 18.1ZM50.1433 16.7C50.9166 16.7 51.6033 16.52 52.2033 16.16C52.8166 15.8 53.2966 15.3067 53.6433 14.68C54.0033 14.04 54.1833 13.3267 54.1833 12.54C54.1833 11.74 54.0033 11.0267 53.6433 10.4C53.2966 9.77333 52.8166 9.28 52.2033 8.92C51.6033 8.54667 50.9166 8.36 50.1433 8.36C49.3833 8.36 48.6966 8.54667 48.0833 8.92C47.4699 9.28 46.9833 9.77333 46.6233 10.4C46.2633 11.0267 46.0833 11.74 46.0833 12.54C46.0833 13.3267 46.2633 14.04 46.6233 14.68C46.9833 15.3067 47.4699 15.8 48.0833 16.16C48.6966 16.52 49.3833 16.7 50.1433 16.7ZM59.4784 18C59.2384 18 59.0451 17.9333 58.8984 17.8C58.7651 17.6533 58.6984 17.4667 58.6984 17.24V7.84C58.6984 7.6 58.7651 7.41333 58.8984 7.28C59.0451 7.13333 59.2384 7.06 59.4784 7.06C59.7051 7.06 59.8851 7.13333 60.0184 7.28C60.1651 7.41333 60.2384 7.6 60.2384 7.84V8.52C60.6651 8.02667 61.1918 7.64 61.8184 7.36C62.4584 7.08 63.1451 6.94 63.8784 6.94C64.8251 6.94 65.6718 7.14 66.4184 7.54C67.1651 7.92667 67.7518 8.5 68.1784 9.26C68.6184 10.02 68.8384 10.9467 68.8384 12.04V17.24C68.8384 17.4533 68.7651 17.6333 68.6184 17.78C68.4718 17.9267 68.2918 18 68.0784 18C67.8518 18 67.6651 17.9267 67.5184 17.78C67.3718 17.6333 67.2984 17.4533 67.2984 17.24V12.04C67.2984 10.8 66.9518 9.88667 66.2584 9.3C65.5784 8.7 64.7318 8.4 63.7184 8.4C63.0651 8.4 62.4718 8.52667 61.9384 8.78C61.4184 9.03333 61.0051 9.38 60.6984 9.82C60.3918 10.26 60.2384 10.76 60.2384 11.32V17.24C60.2384 17.4667 60.1651 17.6533 60.0184 17.8C59.8851 17.9333 59.7051 18 59.4784 18ZM72.9936 18C72.7669 18 72.5803 17.9333 72.4336 17.8C72.3003 17.6533 72.2336 17.4667 72.2336 17.24V3.14C72.2336 2.91333 72.3003 2.73333 72.4336 2.6C72.5803 2.45333 72.7669 2.38 72.9936 2.38C73.2203 2.38 73.4003 2.45333 73.5336 2.6C73.6803 2.73333 73.7536 2.91333 73.7536 3.14V12.24L79.3936 7.14C79.7403 6.83333 80.0669 6.84667 80.3736 7.18C80.5203 7.34 80.5869 7.51333 80.5736 7.7C80.5736 7.87333 80.4936 8.02667 80.3336 8.16L76.3336 11.78L80.4936 16.9C80.7869 17.26 80.7536 17.5933 80.3936 17.9C80.2203 18.0467 80.0403 18.1067 79.8536 18.08C79.6669 18.0667 79.5069 17.9733 79.3736 17.8L75.2536 12.74L73.7536 14.12V17.24C73.7536 17.4667 73.6803 17.6533 73.5336 17.8C73.4003 17.9333 73.2203 18 72.9936 18ZM84.7789 18C84.5389 18 84.3456 17.9333 84.1989 17.8C84.0656 17.6533 83.9989 17.46 83.9989 17.22V7.84C83.9989 7.6 84.0656 7.41333 84.1989 7.28C84.3456 7.13333 84.5389 7.06 84.7789 7.06C85.0056 7.06 85.1856 7.13333 85.3189 7.28C85.4656 7.41333 85.5389 7.6 85.5389 7.84V17.22C85.5389 17.46 85.4656 17.6533 85.3189 17.8C85.1856 17.9333 85.0056 18 84.7789 18ZM84.7589 4.98C84.4656 4.98 84.2122 4.87333 83.9989 4.66C83.7856 4.44667 83.6789 4.18667 83.6789 3.88C83.6789 3.54667 83.7856 3.28667 83.9989 3.1C84.2256 2.9 84.4856 2.8 84.7789 2.8C85.0589 2.8 85.3056 2.9 85.5189 3.1C85.7456 3.28667 85.8589 3.54667 85.8589 3.88C85.8589 4.18667 85.7522 4.44667 85.5389 4.66C85.3256 4.87333 85.0656 4.98 84.7589 4.98ZM90.8202 18C90.6202 18 90.4468 17.9333 90.3002 17.8C90.1535 17.6533 90.0802 17.46 90.0802 17.22V8.8H88.8002C88.5868 8.8 88.4135 8.74 88.2802 8.62C88.1602 8.48667 88.1002 8.32667 88.1002 8.14C88.1002 7.94 88.1602 7.78 88.2802 7.66C88.4135 7.52667 88.5868 7.46 88.8002 7.46H90.0802V7.08C90.0802 5.68 90.4402 4.54667 91.1602 3.68C91.8802 2.81333 92.9202 2.38 94.2802 2.38C94.5068 2.38 94.6935 2.44667 94.8402 2.58C94.9868 2.71333 95.0602 2.88 95.0602 3.08C95.0602 3.28 94.9868 3.44667 94.8402 3.58C94.6935 3.71333 94.5068 3.78 94.2802 3.78C93.3735 3.78 92.7002 4.08667 92.2602 4.7C91.8335 5.3 91.6202 6.06667 91.6202 7V7.46H94.0202C94.2335 7.46 94.4002 7.52667 94.5202 7.66C94.6535 7.78 94.7202 7.94 94.7202 8.14C94.7202 8.32667 94.6535 8.48667 94.5202 8.62C94.4002 8.74 94.2335 8.8 94.0202 8.8H91.6202V17.22C91.6202 17.46 91.5468 17.6533 91.4002 17.8C91.2668 17.9333 91.0735 18 90.8202 18ZM98.6644 22.76C98.5577 22.76 98.4377 22.7333 98.3044 22.68C97.851 22.48 97.7244 22.16 97.9244 21.72L99.9244 17.34L99.9044 17.32L95.4444 8.08C95.351 7.88 95.3377 7.69333 95.4044 7.52C95.471 7.34667 95.6044 7.21333 95.8044 7.12C96.2444 6.92 96.5644 7.03333 96.7644 7.46L100.664 15.68L104.384 7.48C104.584 7.05333 104.904 6.93333 105.344 7.12C105.798 7.30667 105.924 7.62 105.724 8.06L99.2444 22.3C99.111 22.6067 98.9177 22.76 98.6644 22.76Z" fill="white"/>
<g style="mix-blend-mode:lighten">
<path d="M11.0727 3.46393C11.4594 2.80699 12.4095 2.80699 12.7962 3.46393L21.3826 18.0501C21.7751 18.7167 21.2944 19.5574 20.5209 19.5574H3.34798C2.57442 19.5574 2.09379 18.7167 2.48621 18.0501L11.0727 3.46393Z" fill="url(#paint0_linear)"/>
</g>
<g style="mix-blend-mode:lighten">
<path d="M16.2038 1.46393C16.5905 0.806992 17.5406 0.806991 17.9274 1.46393L26.5138 16.0501C26.9062 16.7167 26.4256 17.5574 25.652 17.5574H8.47915C7.70559 17.5574 7.22495 16.7167 7.61738 16.0501L16.2038 1.46393Z" fill="url(#paint1_linear)"/>
</g>
<defs>
<linearGradient id="paint0_linear" x1="11.9344" y1="21.8333" x2="11.9344" y2="3.62569" gradientUnits="userSpaceOnUse">
<stop stop-color="#4B89AC" stop-opacity="0"/>
<stop offset="0.151042" stop-color="white" stop-opacity="0.557292"/>
<stop offset="0.678725" stop-color="#4B89AC"/>
</linearGradient>
<linearGradient id="paint1_linear" x1="17.0656" y1="19.8333" x2="17.0656" y2="1.62569" gradientUnits="userSpaceOnUse">
<stop stop-color="#4B89AC" stop-opacity="0"/>
<stop offset="0.151042" stop-color="white" stop-opacity="0.557292"/>
<stop offset="0.678725" stop-color="#4B89AC"/>
</linearGradient>
</defs>
</svg>
