<svg width="34" height="34" viewBox="0 0 34 34" fill="none" xmlns="http://www.w3.org/2000/svg">
<path d="M14.8143 8.66602C16.4889 8.66602 18.095 9.33127 19.2792 10.5154C20.4633 11.6996 21.1286 13.3056 21.1286 14.9803C21.1286 16.5443 20.5554 17.982 19.6131 19.0894L19.8754 19.3517H20.6429L25.5 24.2089L24.0429 25.666L19.1857 20.8089V20.0414L18.9234 19.7792C17.816 20.7214 16.3783 21.2946 14.8143 21.2946C13.1396 21.2946 11.5336 20.6293 10.3494 19.4452C9.16525 18.261 8.5 16.655 8.5 14.9803C8.5 13.3056 9.16525 11.6996 10.3494 10.5154C11.5336 9.33127 13.1396 8.66602 14.8143 8.66602V8.66602ZM14.8143 10.6089C12.3857 10.6089 10.4429 12.5517 10.4429 14.9803C10.4429 17.4089 12.3857 19.3517 14.8143 19.3517C17.2429 19.3517 19.1857 17.4089 19.1857 14.9803C19.1857 12.5517 17.2429 10.6089 14.8143 10.6089Z" fill="#686B6F"/>
</svg>
