<svg width="157" height="26" viewBox="0 0 157 26" fill="none" xmlns="http://www.w3.org/2000/svg">
<path d="M37.8 18.2C36.52 18.2 35.3867 17.9267 34.4 17.38C33.4267 16.8333 32.7333 16.1067 32.32 15.2C32.2133 14.9867 32.2067 14.7933 32.3 14.62C32.4067 14.4333 32.58 14.3067 32.82 14.24C33.0067 14.1867 33.1867 14.2067 33.36 14.3C33.5467 14.3933 33.6867 14.5333 33.78 14.72C34.0867 15.3067 34.5933 15.7867 35.3 16.16C36.0067 16.5333 36.84 16.72 37.8 16.72C38.8533 16.72 39.72 16.4667 40.4 15.96C41.0933 15.44 41.44 14.6933 41.44 13.72C41.44 12.9067 41.14 12.2067 40.54 11.62C39.94 11.0333 39 10.66 37.72 10.5C36.16 10.3133 34.94 9.83333 34.06 9.06C33.18 8.27333 32.74 7.31333 32.74 6.18C32.74 5.36667 32.9533 4.66 33.38 4.06C33.82 3.46 34.42 3 35.18 2.68C35.94 2.34667 36.8133 2.18 37.8 2.18C38.9067 2.18 39.8533 2.43333 40.64 2.94C41.4267 3.43333 42.0333 4.02 42.46 4.7C42.5933 4.91333 42.6333 5.12 42.58 5.32C42.54 5.52 42.4267 5.67333 42.24 5.78C42.04 5.87333 41.8333 5.88667 41.62 5.82C41.42 5.75333 41.2667 5.62667 41.16 5.44C40.8533 4.97333 40.4333 4.56667 39.9 4.22C39.38 3.86 38.6733 3.67333 37.78 3.66C36.7267 3.66 35.88 3.88667 35.24 4.34C34.6 4.78 34.28 5.42667 34.28 6.28C34.28 6.96 34.5533 7.55333 35.1 8.06C35.66 8.56667 36.6467 8.92 38.06 9.12C39.7267 9.36 40.96 9.87333 41.76 10.66C42.5733 11.4333 42.98 12.4467 42.98 13.7C42.98 14.66 42.7467 15.48 42.28 16.16C41.8267 16.8267 41.2067 17.3333 40.42 17.68C39.6333 18.0267 38.76 18.2 37.8 18.2ZM51.0222 18.1C49.9555 18.1 49.0022 17.86 48.1622 17.38C47.3222 16.9 46.6622 16.24 46.1822 15.4C45.7022 14.56 45.4622 13.6067 45.4622 12.54C45.4622 11.46 45.7022 10.5 46.1822 9.66C46.6622 8.82 47.3222 8.16 48.1622 7.68C49.0022 7.2 49.9555 6.96 51.0222 6.96C52.0889 6.96 53.0355 7.2 53.8622 7.68C54.7022 8.16 55.3622 8.82 55.8422 9.66C56.3222 10.5 56.5689 11.46 56.5822 12.54C56.5822 13.6067 56.3355 14.56 55.8422 15.4C55.3622 16.24 54.7022 16.9 53.8622 17.38C53.0355 17.86 52.0889 18.1 51.0222 18.1ZM51.0222 16.7C51.7955 16.7 52.4889 16.52 53.1022 16.16C53.7155 15.8 54.1955 15.3067 54.5422 14.68C54.8889 14.0533 55.0622 13.34 55.0622 12.54C55.0622 11.74 54.8889 11.0267 54.5422 10.4C54.1955 9.76 53.7155 9.26 53.1022 8.9C52.4889 8.54 51.7955 8.36 51.0222 8.36C50.2489 8.36 49.5555 8.54 48.9422 8.9C48.3289 9.26 47.8422 9.76 47.4822 10.4C47.1355 11.0267 46.9622 11.74 46.9622 12.54C46.9622 13.34 47.1355 14.0533 47.4822 14.68C47.8422 15.3067 48.3289 15.8 48.9422 16.16C49.5555 16.52 50.2489 16.7 51.0222 16.7ZM60.3573 18C60.1173 18 59.924 17.9333 59.7773 17.8C59.644 17.6533 59.5773 17.4667 59.5773 17.24V7.84C59.5773 7.6 59.644 7.41333 59.7773 7.28C59.924 7.13333 60.1173 7.06 60.3573 7.06C60.584 7.06 60.764 7.13333 60.8973 7.28C61.044 7.41333 61.1173 7.6 61.1173 7.84V8.52C61.544 8.02667 62.0707 7.64 62.6973 7.36C63.3373 7.08 64.024 6.94 64.7573 6.94C65.704 6.94 66.5507 7.14 67.2973 7.54C68.044 7.92667 68.6307 8.5 69.0573 9.26C69.4973 10.02 69.7173 10.9467 69.7173 12.04V17.24C69.7173 17.4533 69.644 17.6333 69.4973 17.78C69.3507 17.9267 69.1707 18 68.9573 18C68.7307 18 68.544 17.9267 68.3973 17.78C68.2507 17.6333 68.1773 17.4533 68.1773 17.24V12.04C68.1773 10.8 67.8307 9.88667 67.1373 9.3C66.4573 8.7 65.6107 8.4 64.5973 8.4C63.944 8.4 63.3507 8.52667 62.8173 8.78C62.2973 9.03333 61.884 9.38 61.5773 9.82C61.2707 10.26 61.1173 10.76 61.1173 11.32V17.24C61.1173 17.4667 61.044 17.6533 60.8973 17.8C60.764 17.9333 60.584 18 60.3573 18ZM77.9325 18.1C76.8792 18.1 75.9458 17.8667 75.1325 17.4C74.3192 16.92 73.6792 16.26 73.2125 15.42C72.7592 14.58 72.5325 13.62 72.5325 12.54C72.5325 11.4467 72.7725 10.48 73.2525 9.64C73.7325 8.8 74.3925 8.14667 75.2325 7.68C76.0725 7.2 77.0258 6.96 78.0925 6.96C79.1725 6.96 80.1258 7.2 80.9525 7.68C81.7925 8.14667 82.4458 8.8 82.9125 9.64C83.3925 10.48 83.6392 11.4467 83.6525 12.54V16.62C83.6525 17.7 83.4125 18.6667 82.9325 19.52C82.4525 20.3867 81.7992 21.0667 80.9725 21.56C80.1458 22.0667 79.1992 22.32 78.1325 22.32C77.0792 22.32 76.1525 22.12 75.3525 21.72C74.5525 21.3333 73.8925 20.8 73.3725 20.12C73.2258 19.96 73.1592 19.7867 73.1725 19.6C73.1992 19.4133 73.2992 19.26 73.4725 19.14C73.6458 19.02 73.8392 18.98 74.0525 19.02C74.2658 19.06 74.4325 19.16 74.5525 19.32C74.9392 19.8 75.4325 20.1867 76.0325 20.48C76.6458 20.7733 77.3525 20.92 78.1525 20.92C78.8992 20.92 79.5725 20.74 80.1725 20.38C80.7725 20.02 81.2458 19.5133 81.5925 18.86C81.9525 18.2067 82.1325 17.44 82.1325 16.56V15.64C81.7325 16.4 81.1658 17 80.4325 17.44C79.7125 17.88 78.8792 18.1 77.9325 18.1ZM78.0925 16.7C78.8792 16.7 79.5725 16.5267 80.1725 16.18C80.7858 15.82 81.2658 15.3267 81.6125 14.7C81.9592 14.0733 82.1325 13.3533 82.1325 12.54C82.1325 11.7267 81.9592 11.0067 81.6125 10.38C81.2658 9.74 80.7858 9.24667 80.1725 8.9C79.5725 8.54 78.8792 8.36 78.0925 8.36C77.3058 8.36 76.6058 8.54 75.9925 8.9C75.3792 9.24667 74.8992 9.74 74.5525 10.38C74.2058 11.0067 74.0325 11.7267 74.0325 12.54C74.0325 13.3533 74.2058 14.0733 74.5525 14.7C74.8992 15.3267 75.3792 15.82 75.9925 16.18C76.6058 16.5267 77.3058 16.7 78.0925 16.7ZM87.6277 18C87.401 18 87.2143 17.9267 87.0677 17.78C86.921 17.6333 86.8477 17.4467 86.8477 17.22V3.16C86.8477 2.93333 86.921 2.74667 87.0677 2.6C87.2143 2.45333 87.401 2.38 87.6277 2.38H91.3677C92.341 2.38 93.2077 2.58667 93.9677 3C94.7277 3.4 95.321 3.96667 95.7477 4.7C96.1877 5.42 96.4077 6.25333 96.4077 7.2C96.4077 8.24 96.1277 9.14667 95.5677 9.92C95.0077 10.68 94.261 11.22 93.3277 11.54L96.6077 16.8C96.8077 17.12 96.841 17.4 96.7077 17.64C96.5877 17.88 96.3477 18 95.9877 18C95.8143 18 95.6743 17.9667 95.5677 17.9C95.4743 17.8333 95.3877 17.7333 95.3077 17.6L91.7077 11.86C91.601 11.8733 91.4877 11.88 91.3677 11.88H88.4077V17.22C88.4077 17.4467 88.3343 17.6333 88.1877 17.78C88.041 17.9267 87.8543 18 87.6277 18ZM88.4077 10.38H91.3677C92.0477 10.38 92.6477 10.2467 93.1677 9.98C93.701 9.7 94.121 9.32 94.4277 8.84C94.7343 8.36 94.8877 7.81333 94.8877 7.2C94.8877 6.54667 94.7343 5.97333 94.4277 5.48C94.121 4.97333 93.701 4.58 93.1677 4.3C92.6477 4.02 92.0477 3.88 91.3677 3.88H88.4077V10.38ZM103.831 18.1C102.804 18.1 101.884 17.86 101.071 17.38C100.258 16.8867 99.6109 16.22 99.1309 15.38C98.6643 14.54 98.4309 13.5933 98.4309 12.54C98.4309 11.4733 98.6709 10.52 99.1509 9.68C99.6443 8.84 100.311 8.18 101.151 7.7C101.991 7.20667 102.938 6.96 103.991 6.96C105.044 6.96 105.984 7.20667 106.811 7.7C107.651 8.18 108.311 8.84 108.791 9.68C109.284 10.52 109.538 11.4733 109.551 12.54V17.24C109.551 17.4667 109.478 17.6533 109.331 17.8C109.184 17.9333 108.998 18 108.771 18C108.544 18 108.358 17.9333 108.211 17.8C108.064 17.6533 107.991 17.4667 107.991 17.24V16.02C107.538 16.66 106.951 17.1667 106.231 17.54C105.511 17.9133 104.711 18.1 103.831 18.1ZM103.991 16.7C104.764 16.7 105.451 16.52 106.051 16.16C106.664 15.8 107.144 15.3067 107.491 14.68C107.851 14.04 108.031 13.3267 108.031 12.54C108.031 11.74 107.851 11.0267 107.491 10.4C107.144 9.77333 106.664 9.28 106.051 8.92C105.451 8.54667 104.764 8.36 103.991 8.36C103.231 8.36 102.544 8.54667 101.931 8.92C101.318 9.28 100.831 9.77333 100.471 10.4C100.111 11.0267 99.9309 11.74 99.9309 12.54C99.9309 13.3267 100.111 14.04 100.471 14.68C100.831 15.3067 101.318 15.8 101.931 16.16C102.544 16.52 103.231 16.7 103.991 16.7ZM113.326 18C113.086 18 112.893 17.9333 112.746 17.8C112.613 17.6533 112.546 17.4667 112.546 17.24V7.84C112.546 7.6 112.613 7.41333 112.746 7.28C112.893 7.13333 113.086 7.06 113.326 7.06C113.553 7.06 113.733 7.13333 113.866 7.28C114.013 7.41333 114.086 7.6 114.086 7.84V8.52C114.513 8.02667 115.039 7.64 115.666 7.36C116.306 7.08 116.993 6.94 117.726 6.94C118.673 6.94 119.519 7.14 120.266 7.54C121.013 7.92667 121.599 8.5 122.026 9.26C122.466 10.02 122.686 10.9467 122.686 12.04V17.24C122.686 17.4533 122.613 17.6333 122.466 17.78C122.319 17.9267 122.139 18 121.926 18C121.699 18 121.513 17.9267 121.366 17.78C121.219 17.6333 121.146 17.4533 121.146 17.24V12.04C121.146 10.8 120.799 9.88667 120.106 9.3C119.426 8.7 118.579 8.4 117.566 8.4C116.913 8.4 116.319 8.52667 115.786 8.78C115.266 9.03333 114.853 9.38 114.546 9.82C114.239 10.26 114.086 10.76 114.086 11.32V17.24C114.086 17.4667 114.013 17.6533 113.866 17.8C113.733 17.9333 113.553 18 113.326 18ZM126.841 18C126.615 18 126.428 17.9333 126.281 17.8C126.148 17.6533 126.081 17.4667 126.081 17.24V3.14C126.081 2.91333 126.148 2.73333 126.281 2.6C126.428 2.45333 126.615 2.38 126.841 2.38C127.068 2.38 127.248 2.45333 127.381 2.6C127.528 2.73333 127.601 2.91333 127.601 3.14V12.24L133.241 7.14C133.588 6.83333 133.915 6.84667 134.221 7.18C134.368 7.34 134.435 7.51333 134.421 7.7C134.421 7.87333 134.341 8.02667 134.181 8.16L130.181 11.78L134.341 16.9C134.635 17.26 134.601 17.5933 134.241 17.9C134.068 18.0467 133.888 18.1067 133.701 18.08C133.515 18.0667 133.355 17.9733 133.221 17.8L129.101 12.74L127.601 14.12V17.24C127.601 17.4667 127.528 17.6533 127.381 17.8C127.248 17.9333 127.068 18 126.841 18ZM141.49 18.1C140.41 18.1 139.45 17.8667 138.61 17.4C137.784 16.92 137.13 16.26 136.65 15.42C136.184 14.58 135.95 13.62 135.95 12.54C135.95 11.4467 136.17 10.4867 136.61 9.66C137.064 8.82 137.684 8.16 138.47 7.68C139.257 7.2 140.164 6.96 141.19 6.96C142.204 6.96 143.084 7.19333 143.83 7.66C144.59 8.11333 145.177 8.74667 145.59 9.56C146.004 10.3733 146.21 11.3 146.21 12.34C146.21 12.5533 146.144 12.7267 146.01 12.86C145.877 12.98 145.704 13.04 145.49 13.04H137.41C137.49 13.76 137.71 14.4 138.07 14.96C138.43 15.5067 138.904 15.94 139.49 16.26C140.077 16.5667 140.744 16.72 141.49 16.72C141.97 16.72 142.45 16.64 142.93 16.48C143.424 16.3067 143.817 16.0933 144.11 15.84C144.257 15.72 144.424 15.66 144.61 15.66C144.797 15.6467 144.957 15.6933 145.09 15.8C145.264 15.96 145.35 16.1333 145.35 16.32C145.364 16.5067 145.29 16.6667 145.13 16.8C144.69 17.1733 144.13 17.4867 143.45 17.74C142.77 17.98 142.117 18.1 141.49 18.1ZM141.19 8.34C140.164 8.34 139.317 8.66 138.65 9.3C137.984 9.92667 137.584 10.7467 137.45 11.76H144.77C144.664 10.7467 144.29 9.92667 143.65 9.3C143.024 8.66 142.204 8.34 141.19 8.34ZM149.576 18C149.069 18 148.816 17.7467 148.816 17.24V7.82C148.816 7.31333 149.069 7.06 149.576 7.06C150.082 7.06 150.336 7.31333 150.336 7.82V8.68C150.736 8.14667 151.229 7.72667 151.816 7.42C152.402 7.1 153.049 6.94 153.756 6.94C154.369 6.94 154.842 7.02667 155.176 7.2C155.509 7.37333 155.636 7.62667 155.556 7.96C155.489 8.26667 155.329 8.42667 155.076 8.44C154.836 8.44 154.549 8.42667 154.216 8.4C153.469 8.33333 152.802 8.41333 152.216 8.64C151.642 8.85333 151.182 9.18667 150.836 9.64C150.502 10.0933 150.336 10.6333 150.336 11.26V17.24C150.336 17.7467 150.082 18 149.576 18Z" fill="white"/>
<g style="mix-blend-mode:lighten">
<path d="M11.0727 3.46393C11.4594 2.80699 12.4095 2.80699 12.7962 3.46393L21.3826 18.0501C21.7751 18.7167 21.2944 19.5574 20.5209 19.5574H3.34798C2.57442 19.5574 2.09379 18.7167 2.48621 18.0501L11.0727 3.46393Z" fill="url(#paint0_linear)"/>
</g>
<g style="mix-blend-mode:lighten">
<path d="M16.2038 1.46393C16.5905 0.806992 17.5406 0.806991 17.9274 1.46393L26.5138 16.0501C26.9062 16.7167 26.4256 17.5574 25.652 17.5574H8.47915C7.70559 17.5574 7.22495 16.7167 7.61738 16.0501L16.2038 1.46393Z" fill="url(#paint1_linear)"/>
</g>
<defs>
<linearGradient id="paint0_linear" x1="11.9344" y1="21.8333" x2="11.9344" y2="3.62569" gradientUnits="userSpaceOnUse">
<stop stop-color="#4B89AC" stop-opacity="0"/>
<stop offset="0.151042" stop-color="white" stop-opacity="0.557292"/>
<stop offset="0.678725" stop-color="#4B89AC"/>
</linearGradient>
<linearGradient id="paint1_linear" x1="17.0656" y1="19.8333" x2="17.0656" y2="1.62569" gradientUnits="userSpaceOnUse">
<stop stop-color="#4B89AC" stop-opacity="0"/>
<stop offset="0.151042" stop-color="white" stop-opacity="0.557292"/>
<stop offset="0.678725" stop-color="#4B89AC"/>
</linearGradient>
</defs>
</svg>
